# xmcd
#
# Track frame offsets: 
#        150
#        30605
#        62250
#        91423
#        127115
#        153083
#        185785
#        209085
#        236885
#        256300
#        283443
#        309523
#
# Disc length: 4494 seconds
#
# Revision: 3
# Processed by: cddbd v1.5.2PL0 Copyright (c) Steve Scherf et al.
# Submitted via: ExactAudioCopyFreeDBPlugin 1.0
#
DISCID=b3118c0c
DTITLE=Heaven 17 - Retox - Detox [Retox CD1]
DYEAR=1998
DGENRE=Rock
TTITLE0=Let Me Go (Rob Playford)
TTITLE1=Let's All Make A Bomb (Adrian Sherwood)
TTITLE2=Geisha Boys and Temple Girls (Club Mix) (Freddie Fresh)
TTITLE3=We Live So Fast (DJ Suv)
TTITLE4=Come Live With Me (Mulu)
TTITLE5=At The Height Of The Fighting (Steve Hillier Project)
TTITLE6=Crushed By The Wheels (Of Industry) (Ski)
TTITLE7=Play To Win (M@krohart)
TTITLE8=Let's All Make A Bomb (Geek)
TTITLE9=Geisha Boys and Temple Girls (Kevin Francis)
TTITLE10=And That's No Lie (Steve D'Agostino)
TTITLE11=Let Me Go (Ashley Beedle)
EXTD=
EXTT0=
EXTT1=
EXTT2=
EXTT3=
EXTT4=
EXTT5=
EXTT6=
EXTT7=
EXTT8=
EXTT9=
EXTT10=
EXTT11=
PLAYORDER=
